<?xml version="1.0" encoding="utf-8"?>
<!-- Generator: Adobe Illustrator 18.1.1, SVG Export Plug-In . SVG Version: 6.00 Build 0)  -->
<!DOCTYPE svg PUBLIC "-//W3C//DTD SVG 1.1//EN" "http://www.w3.org/Graphics/SVG/1.1/DTD/svg11.dtd">
<svg version="1.1" id="Layer_1" xmlns="http://www.w3.org/2000/svg" xmlns:xlink="http://www.w3.org/1999/xlink" x="0px" y="0px"
	 viewBox="0 0 200 200" enable-background="new 0 0 200 200" xml:space="preserve">
<path fill="none" stroke="#000000" stroke-width="4" stroke-miterlimit="10" d="M100,23.9c16.7,0,30.2,36.1,30.2,80.6
	s-13.5,80.6-30.2,80.6S69.8,149,69.8,104.5S83.3,23.9,100,23.9"/>
<path fill="none" stroke="#000000" stroke-width="4" stroke-miterlimit="10" d="M170.3,65.2c8.1,14.6-16.7,44-55.6,65.7
	s-76.9,27.5-85.1,12.9s16.7-44,55.6-65.7S162.2,50.6,170.3,65.2"/>
<path fill="none" stroke="#000000" stroke-width="4" stroke-miterlimit="10" d="M29.7,65.2c-8.1,14.6,16.7,44,55.6,65.7
	s76.9,27.5,85.1,12.9c8.1-14.6-16.7-44-55.6-65.7S37.8,50.6,29.7,65.2"/>
</svg>
