<?xml version="1.0" encoding="utf-8"?>
<!-- Generator: Adobe Illustrator 18.1.1, SVG Export Plug-In . SVG Version: 6.00 Build 0)  -->
<!DOCTYPE svg PUBLIC "-//W3C//DTD SVG 1.1//EN" "http://www.w3.org/Graphics/SVG/1.1/DTD/svg11.dtd">
<svg version="1.1" id="Layer_1" xmlns="http://www.w3.org/2000/svg" xmlns:xlink="http://www.w3.org/1999/xlink" x="0px" y="0px"
	 viewBox="0 0 500 500" enable-background="new 0 0 500 500" xml:space="preserve">
<path fill="none" stroke="#231F20" stroke-width="4" stroke-linejoin="round" stroke-miterlimit="10" d="M193,119.5
	c-9.5,0.8-18.8,4.8-26,12l0,0c-16.2,16.2-16.2,43,0,59.2l0,0"/>
<path fill="none" stroke="#231F20" stroke-width="4" stroke-linejoin="round" stroke-miterlimit="10" d="M208.5,340.8
	c-0.8-9.5-4.8-18.8-12-26l0,0c-16.2-16.2-43-16.2-59.2,0l0,0"/>
<path fill="none" stroke="#231F20" stroke-width="4" stroke-linejoin="round" stroke-miterlimit="10" d="M250,75l-0.5,0.2
	c-0.2-12.8-10.5-23-23.2-23c-12.8,0-23.2,10.5-23.2,23.2c0,2.5,0.5,5,1.2,7.5c-7.5-4.8-16-7.5-25.5-7.5c-26.2,0-47.5,21.2-47.5,47.5
	c0,0.5,0,1.2,0,1.8C98.5,132,74,161,74,196c0,15.8,5,30.5,13.5,42.5C67.2,255,54.2,280,54.2,308c0,35.8,21,66.5,51.2,80.8
	c6.5,33.5,36,58.5,71.2,58.5c38.2,0,69.8-29.8,72.5-67.2h0.5V75H250z"/>
<path fill="none" stroke="#231F20" stroke-width="4" stroke-linejoin="round" stroke-miterlimit="10" d="M220,196
	c0,40.2-32.8,73-73,73s-72.8-32.8-72.8-73"/>
<path fill="none" stroke="#231F20" stroke-width="4" stroke-linejoin="round" stroke-miterlimit="10" d="M196,380.5
	c-14.8,10.5-32.8,16.8-52.2,16.8c-49.2,0-89.2-40-89.2-89.2"/>
<path fill="none" stroke="#231F20" stroke-width="4" stroke-linejoin="round" stroke-miterlimit="10" d="M249.5,374.8
	c0,40.2-32.5,72.8-72.7,72.8c-35,0-64.5-25-71.2-58"/>
<path fill="none" stroke="#231F20" stroke-width="4" stroke-linejoin="round" stroke-miterlimit="10" d="M306.5,119.5
	c9.5,0.8,18.8,4.8,26,12l0,0c16.2,16.2,16.2,43,0,59.2l0,0"/>
<path fill="none" stroke="#231F20" stroke-width="4" stroke-linejoin="round" stroke-miterlimit="10" d="M290.8,340.8
	c0.8-9.5,4.8-18.8,12-26l0,0c16.2-16.2,43-16.2,59.2,0l0,0"/>
<path fill="none" stroke="#231F20" stroke-width="4" stroke-linejoin="round" stroke-miterlimit="10" d="M250,75L250,75
	c0.2-12.5,10.5-22.8,23.2-22.8s23.2,10.5,23.2,23.2c0,2.5-0.5,5-1.2,7.5c7.5-4.8,16-7.5,25.5-7.5c26.2,0,47.5,21.2,47.5,47.5
	c0,0.5,0,1.2,0,1.8C401,132,425.5,161,425.5,196c0,15.8-5,30.5-13.5,42.5c20.3,16.5,33.2,41.5,33.2,69.5c0,35.8-21,66.5-51.2,80.8
	c-6.5,33.5-36,58.5-71.2,58.5c-38.2,0-69.7-29.8-72.5-67.2l0,0V75H250z"/>
<path fill="none" stroke="#231F20" stroke-width="4" stroke-linejoin="round" stroke-miterlimit="10" d="M279.5,196
	c0,40.2,32.8,73,73,73s73-32.7,73-73"/>
<path fill="none" stroke="#231F20" stroke-width="4" stroke-linejoin="round" stroke-miterlimit="10" d="M303.5,380.5
	c14.8,10.5,32.8,16.8,52.2,16.8c49.2,0,89.2-40,89.2-89.2"/>
<path fill="none" stroke="#231F20" stroke-width="4" stroke-linejoin="round" stroke-miterlimit="10" d="M249.8,374.8
	c0,40.2,32.5,72.8,72.8,72.8c35,0,64.5-25,71.2-58"/>
</svg>
