<?xml version="1.0" encoding="utf-8"?>
<!-- Generator: Adobe Illustrator 18.1.1, SVG Export Plug-In . SVG Version: 6.00 Build 0)  -->
<!DOCTYPE svg PUBLIC "-//W3C//DTD SVG 1.1//EN" "http://www.w3.org/Graphics/SVG/1.1/DTD/svg11.dtd">
<svg version="1.1" id="Layer_1" xmlns="http://www.w3.org/2000/svg" xmlns:xlink="http://www.w3.org/1999/xlink" x="0px" y="0px"
	 viewBox="0 0 200 200" enable-background="new 0 0 200 200" xml:space="preserve">
<g>
	<path fill="none" stroke="#231F20" stroke-width="4" stroke-linecap="round" stroke-linejoin="round" stroke-miterlimit="10" d="
		M64.4,21c0,0,13.6,3,13.6,13.5S78,75,78,75l-48.9,90.2c0,0,0.1,13.8,13.6,13.8s58.5,0,58.5,0h-4c0,0,45,0,58.5,0
		s13.4-13.8,13.4-13.8L120,75c0,0,0-30,0-40.5S133.5,21,133.5,21S64.5,21,64.4,21z"/>
	<path fill="none" stroke="#231F20" stroke-width="4" stroke-linecap="round" stroke-linejoin="round" stroke-miterlimit="10" d="
		M157.6,163l-31.8-63c0,0-12.2,19.8-31,0c-11-11.6-21.1,0.2-21.1,0l-33.1,63c0,0-0.9,9,8.9,9c7.1,0,31.6,0,45,0c5.4,0,9,0,9,0
		c13.4,0,37.9,0,45,0C158.4,172,157.6,163,157.6,163z"/>
	<g>
		
			<path fill="#FFFFFF" stroke="#231F20" stroke-width="4" stroke-linecap="round" stroke-linejoin="round" stroke-miterlimit="10" d="
			M121.3,154L121.3,154c-7.4,0-13.5-6.1-13.5-13.5v0c0-7.4,6.1-13.5,13.5-13.5h0c7.4,0,13.5,6.1,13.5,13.5v0
			C134.8,147.9,128.7,154,121.3,154z"/>
		<path fill="none" stroke="#231F20" stroke-width="4" stroke-linecap="round" stroke-linejoin="round" stroke-miterlimit="10" d="
			M80.8,154L80.8,154c-5,0-9-4.1-9-9v0c0-4.9,4-9,9-9h0c4.9,0,9,4.1,9,9v0C89.8,149.9,85.7,154,80.8,154z"/>
		<path fill="none" stroke="#231F20" stroke-width="4" stroke-linecap="round" stroke-linejoin="round" stroke-miterlimit="10" d="
			M107.8,100L107.8,100c-5,0-9-4-9-9v0c0-4.9,4-9,9-9h0c4.9,0,9,4,9,9v0C116.8,96,112.7,100,107.8,100z"/>
	</g>
</g>
</svg>
