<?xml version="1.0" encoding="utf-8"?>
<!-- Generator: Adobe Illustrator 18.1.1, SVG Export Plug-In . SVG Version: 6.00 Build 0)  -->
<!DOCTYPE svg PUBLIC "-//W3C//DTD SVG 1.1//EN" "http://www.w3.org/Graphics/SVG/1.1/DTD/svg11.dtd">
<svg version="1.1" id="Layer_1" xmlns="http://www.w3.org/2000/svg" xmlns:xlink="http://www.w3.org/1999/xlink" x="0px" y="0px"
	 viewBox="0 0 200 200" enable-background="new 0 0 200 200" xml:space="preserve">
<g>
	<path fill="none" stroke="#231F20" stroke-width="4" stroke-linecap="round" stroke-miterlimit="10" d="M105.7,132.3l10-59.5
		c0,0,1.8-7.1-7-7.1c-5.2,0-2,10.5-9,10.5h-1.4c-7,0-3.8-10.5-9-10.5c-9.2,0-7,7.1-7,7.1l10,59.5"/>
	
		<line fill="none" stroke="#231F20" stroke-width="4" stroke-linecap="round" stroke-miterlimit="10" x1="119.5" y1="136.5" x2="78.5" y2="146.5"/>
	
		<line fill="none" stroke="#231F20" stroke-width="4" stroke-linecap="round" stroke-miterlimit="10" x1="119.5" y1="144.1" x2="78.5" y2="154.1"/>
	
		<line fill="none" stroke="#231F20" stroke-width="4" stroke-linecap="round" stroke-miterlimit="10" x1="119.5" y1="151.7" x2="78.5" y2="161.7"/>
	
		<polygon fill="none" stroke="#231F20" stroke-width="4" stroke-linecap="round" stroke-linejoin="round" stroke-miterlimit="10" points="
		119.5,159.1 78.5,169.1 85.5,176.1 109.2,176.1 	"/>
	<path fill="none" stroke="#231F20" stroke-width="4" stroke-miterlimit="10" d="M78.6,139l40.8-10c2.8-0.7,2.9-0.7,2.9-7
		c0-16.2,19.9-36.1,19.9-58.5c0-24.4-20.1-41-43.1-41.3c-23,0.3-43.3,16.9-43.3,41.4c0,22.4,19.9,42.2,19.9,58.4
		C75.7,132.3,76,136,78.6,139z"/>
</g>
</svg>
