<?xml version="1.0" encoding="utf-8"?>
<!-- Generator: Adobe Illustrator 18.1.1, SVG Export Plug-In . SVG Version: 6.00 Build 0)  -->
<!DOCTYPE svg PUBLIC "-//W3C//DTD SVG 1.1//EN" "http://www.w3.org/Graphics/SVG/1.1/DTD/svg11.dtd">
<svg version="1.1" id="Layer_1" xmlns="http://www.w3.org/2000/svg" xmlns:xlink="http://www.w3.org/1999/xlink" x="0px" y="0px"
	 viewBox="0 0 200 200" enable-background="new 0 0 200 200" xml:space="preserve">
<g>
	<path fill="none" stroke="#231F20" stroke-width="4" stroke-miterlimit="10" d="M144.2,102c0,22.3-21.3,41.7-44.5,41.7
		c-23.2,0-44.5-19.5-44.5-41.7V59.9c0-24.7,20.8-41.4,44-41.4c23.2,0,45,19.5,45,41.4V102z"/>
	<path fill="none" stroke="#231F20" stroke-width="4" stroke-linecap="round" stroke-miterlimit="10" d="M44,87.9v14
		c-1,31.4,23.8,56.1,55.1,56.1c31.4,0,56.1-24.7,56.1-56.1V88.1"/>
	<line fill="none" stroke="#231F20" stroke-width="4" stroke-miterlimit="10" x1="99.7" y1="158.1" x2="99.7" y2="182.6"/>
	
		<line fill="none" stroke="#231F20" stroke-width="4" stroke-linecap="round" stroke-miterlimit="10" x1="99.7" y1="18.5" x2="99.7" y2="38"/>
	
		<line fill="none" stroke="#231F20" stroke-width="4" stroke-linecap="round" stroke-miterlimit="10" x1="116.3" y1="22.1" x2="116.3" y2="38"/>
	
		<line fill="none" stroke="#231F20" stroke-width="4" stroke-linecap="round" stroke-miterlimit="10" x1="83" y1="21.3" x2="83" y2="38"/>
	<line fill="none" stroke="#231F20" stroke-width="4" stroke-miterlimit="10" x1="44" y1="102" x2="155.3" y2="102"/>
	<line fill="none" stroke="#231F20" stroke-width="4" stroke-miterlimit="10" x1="44" y1="180.9" x2="155.3" y2="180.9"/>
	
		<line fill="none" stroke="#231F20" stroke-width="4" stroke-linecap="round" stroke-miterlimit="10" x1="55.2" y1="57.5" x2="85.1" y2="57.5"/>
	
		<line fill="none" stroke="#231F20" stroke-width="4" stroke-linecap="round" stroke-miterlimit="10" x1="55.2" y1="74.2" x2="85.1" y2="74.2"/>
	
		<line fill="none" stroke="#231F20" stroke-width="4" stroke-linecap="round" stroke-miterlimit="10" x1="144.1" y1="57.5" x2="113.2" y2="57.5"/>
	
		<line fill="none" stroke="#231F20" stroke-width="4" stroke-linecap="round" stroke-miterlimit="10" x1="144.2" y1="74.2" x2="113.2" y2="74.2"/>
	
		<line fill="none" stroke="#231F20" stroke-width="4" stroke-linecap="round" stroke-miterlimit="10" x1="55.2" y1="90.8" x2="85.1" y2="90.8"/>
	
		<line fill="none" stroke="#231F20" stroke-width="4" stroke-linecap="round" stroke-miterlimit="10" x1="144.2" y1="90.8" x2="113.2" y2="90.8"/>
</g>
</svg>
