<?xml version="1.0" encoding="utf-8"?>
<!-- Generator: Adobe Illustrator 18.1.1, SVG Export Plug-In . SVG Version: 6.00 Build 0)  -->
<!DOCTYPE svg PUBLIC "-//W3C//DTD SVG 1.1//EN" "http://www.w3.org/Graphics/SVG/1.1/DTD/svg11.dtd">
<svg version="1.1" id="Layer_1" xmlns="http://www.w3.org/2000/svg" xmlns:xlink="http://www.w3.org/1999/xlink" x="0px" y="0px"
	 viewBox="-3.5 -3.5 484.5 166.4" enable-background="new -3.5 -3.5 484.5 166.4" xml:space="preserve">
<g>
	<g>
		<path fill="none" stroke="#000000" stroke-width="4" stroke-miterlimit="10" d="M82.6,0H0v159.4"/>
	</g>
	<g>
		<path fill="none" stroke="#000000" stroke-width="4" stroke-miterlimit="10" d="M82.6,31.9H31.9v31.7h35.9"/>
	</g>
	<g>
		<path fill="none" stroke="#000000" stroke-width="4" stroke-miterlimit="10" d="M67.9,95.5H31.9v63.8"/>
	</g>
	<g>
		<path fill="none" stroke="#000000" stroke-width="4" stroke-miterlimit="10" d="M196.9,0h-82.8v159.4h82.8"/>
	</g>
	<g>
		<path fill="none" stroke="#000000" stroke-width="4" stroke-miterlimit="10" d="M196.9,31.9H146v31.7h35.9"/>
	</g>
	<g>
		<path fill="none" stroke="#000000" stroke-width="4" stroke-miterlimit="10" d="M181.9,95.5H146v31.9h50.9"/>
	</g>
	<g>
		<path fill="none" stroke="#000000" stroke-width="4" stroke-miterlimit="10" d="M314.5,0h-82.8v159.4h82.8"/>
	</g>
	<g>
		<path fill="none" stroke="#000000" stroke-width="4" stroke-miterlimit="10" d="M314.5,31.9h-50.9v31.7h35.9"/>
	</g>
	<g>
		<path fill="none" stroke="#000000" stroke-width="4" stroke-miterlimit="10" d="M299.6,95.5h-35.9v31.9h50.9"/>
	</g>
	<g>
		<path fill="none" stroke="#000000" stroke-width="4" stroke-miterlimit="10" d="M349.3,159.4V0h47.8c38.4,0,62.7,20.5,73.4,47.1
			c8.5,20.5,8.5,44.6,0,65.2c-10.7,26.6-35,47.1-73.4,47.1H381"/>
	</g>
	<g>
		<path fill="none" stroke="#000000" stroke-width="4" stroke-miterlimit="10" d="M381.3,95.5V31.7h15.8c22.3,0,36.6,12.5,42.9,28.3
			c4.9,12.5,4.9,26.8,0,39.3c-6.2,16.1-20.5,28.3-42.9,28.3h-15.8"/>
	</g>
</g>
</svg>
